<svg xmlns="http://www.w3.org/2000/svg" viewBox="0 0 800 640" font-family="system-ui,sans-serif">
  <rect width="800" height="640" rx="14" fill="#FAFAF7" stroke="#E5E7EB"/>
  <text x="400" y="38" font-size="21" font-weight="700" fill="#1E1B4B" text-anchor="middle">Malá destička, velké první kroky</text>

  <rect x="14" y="56" width="380" height="264" rx="10" fill="#FFFFFF" stroke="#E5E7EB"/>
  <rect x="406" y="56" width="380" height="264" rx="10" fill="#FFFFFF" stroke="#E5E7EB"/>
  <rect x="14" y="336" width="380" height="264" rx="10" fill="#FFFFFF" stroke="#E5E7EB"/>
  <rect x="406" y="336" width="380" height="264" rx="10" fill="#FFFFFF" stroke="#E5E7EB"/>

  <!-- Panel 1 -->
  <rect x="222" y="75" width="153" height="52" rx="9" fill="#E0F2FE" stroke="#0EA5E9"/>
  <text x="298.5" y="96" font-size="12.5" fill="#1E1B4B" text-anchor="middle">Počítač menší</text>
  <text x="298.5" y="114" font-size="12.5" fill="#1E1B4B" text-anchor="middle">než žvýkačky?</text>

  <g>
    <rect x="34" y="137" width="166" height="94" rx="6" fill="#FFFFFF" stroke="#1E1B4B" stroke-width="2"/>
    <rect x="43" y="146" width="148" height="73" rx="3" fill="#EDE9FE" stroke="#7C3AED"/>
    <text x="53" y="161" font-size="11" font-weight="700" fill="#7C3AED">MakeCode</text>
    <rect x="53" y="170" width="64" height="13" rx="4" fill="#7C3AED"/>
    <rect x="63" y="187" width="67" height="13" rx="4" fill="#0EA5E9"/>
    <rect x="145" y="166" width="34" height="36" rx="5" fill="#1E1B4B"/>
    <circle cx="155" cy="178" r="2" fill="#10B981"/>
    <circle cx="168" cy="190" r="2" fill="#10B981"/>
    <line x1="27" y1="239" x2="207" y2="239" stroke="#1E1B4B" stroke-width="2.5" stroke-linecap="round"/>
  </g>

  <g>
    <rect x="219" y="169" width="57" height="41" rx="5" fill="#EDE9FE" stroke="#7C3AED" stroke-width="2"/>
    <circle cx="232" cy="180" r="3" fill="#FFFFFF"/>
    <circle cx="263" cy="180" r="3" fill="#FFFFFF"/>
    <circle cx="237" cy="194" r="2" fill="#10B981"/>
    <circle cx="247" cy="194" r="2" fill="#10B981"/>
    <circle cx="257" cy="194" r="2" fill="#10B981"/>
  </g>

  <g>
    <rect x="211" y="221" width="76" height="29" rx="5" fill="#FEF3C7" stroke="#D97706"/>
    <text x="249" y="240" font-size="10" fill="#D97706" text-anchor="middle">ŽVÝKAČKY</text>
  </g>

  <g>
    <circle cx="337" cy="159" r="10" fill="#0EA5E9"/>
    <line x1="337" y1="170" x2="337" y2="214" stroke="#1E1B4B" stroke-width="2.5" stroke-linecap="round"/>
    <line x1="337" y1="181" x2="299" y2="193" stroke="#1E1B4B" stroke-width="2.5" stroke-linecap="round"/>
    <line x1="337" y1="181" x2="359" y2="199" stroke="#1E1B4B" stroke-width="2.5" stroke-linecap="round"/>
    <line x1="337" y1="214" x2="321" y2="240" stroke="#1E1B4B" stroke-width="2.5" stroke-linecap="round"/>
    <line x1="337" y1="214" x2="354" y2="240" stroke="#1E1B4B" stroke-width="2.5" stroke-linecap="round"/>
  </g>

  <text x="204" y="306" font-size="12" fill="#6B7280" text-anchor="middle">Školní micro:bit má simulátor přímo v prohlížeči.</text>

  <!-- Panel 2 -->
  <rect x="574" y="76" width="185" height="52" rx="9" fill="#EDE9FE" stroke="#7C3AED"/>
  <text x="666.5" y="97" font-size="12.5" fill="#1E1B4B" text-anchor="middle">Bloky: zatřes</text>
  <text x="666.5" y="115" font-size="12.5" fill="#1E1B4B" text-anchor="middle">a vyber chodbu.</text>

  <g>
    <circle cx="469" cy="154" r="10" fill="#0EA5E9"/>
    <line x1="469" y1="165" x2="469" y2="216" stroke="#1E1B4B" stroke-width="2.5" stroke-linecap="round"/>
    <line x1="469" y1="178" x2="497" y2="191" stroke="#1E1B4B" stroke-width="2.5" stroke-linecap="round"/>
    <line x1="469" y1="178" x2="445" y2="196" stroke="#1E1B4B" stroke-width="2.5" stroke-linecap="round"/>
    <line x1="469" y1="216" x2="451" y2="247" stroke="#1E1B4B" stroke-width="2.5" stroke-linecap="round"/>
    <line x1="469" y1="216" x2="489" y2="247" stroke="#1E1B4B" stroke-width="2.5" stroke-linecap="round"/>
  </g>

  <g>
    <rect x="500" y="159" width="91" height="68" rx="8" fill="#EDE9FE" stroke="#7C3AED" stroke-width="2"/>
    <circle cx="516" cy="172" r="4" fill="#FFFFFF"/>
    <circle cx="575" cy="172" r="4" fill="#FFFFFF"/>
    <circle cx="521" cy="184" r="3" fill="#10B981"/>
    <circle cx="570" cy="184" r="3" fill="#10B981"/>
    <circle cx="545" cy="193" r="3" fill="#10B981"/>
    <circle cx="521" cy="205" r="3" fill="#10B981"/>
    <circle cx="570" cy="205" r="3" fill="#10B981"/>
    <text x="520" y="221" font-size="9" fill="#7C3AED">A</text>
    <text x="568" y="221" font-size="9" fill="#7C3AED">B</text>
  </g>

  <g>
    <line x1="621" y1="179" x2="621" y2="237" stroke="#6B7280" stroke-width="2.5" stroke-linecap="round"/>
    <line x1="621" y1="204" x2="652" y2="181" stroke="#6B7280" stroke-width="2.5" stroke-linecap="round"/>
    <line x1="621" y1="204" x2="652" y2="231" stroke="#6B7280" stroke-width="2.5" stroke-linecap="round"/>
    <rect x="651" y="164" width="73" height="28" rx="5" fill="#D1FAE5" stroke="#10B981"/>
    <rect x="651" y="218" width="73" height="28" rx="5" fill="#FEF3C7" stroke="#D97706"/>
    <text x="687.5" y="182" font-size="10" fill="#1E1B4B" text-anchor="middle">CHODBA A</text>
    <text x="687.5" y="236" font-size="10" fill="#1E1B4B" text-anchor="middle">CHODBA B</text>
  </g>

  <text x="596" y="306" font-size="12" fill="#6B7280" text-anchor="middle">Z blokového programu je kostka, která vybírá chodbu.</text>

  <!-- Panel 3 -->
  <rect x="31" y="353" width="184" height="52" rx="9" fill="#E0F2FE" stroke="#0EA5E9"/>
  <text x="123" y="374" font-size="12.5" fill="#1E1B4B" text-anchor="middle">Bloky znám.</text>
  <text x="123" y="392" font-size="12.5" fill="#1E1B4B" text-anchor="middle">Teď zkusím text.</text>

  <g>
    <rect x="227" y="356" width="140" height="76" rx="7" fill="#FFFFFF" stroke="#7C3AED"/>
    <text x="239" y="377" font-size="10.5" fill="#7C3AED">let kroky = 0</text>
    <text x="239" y="396" font-size="10.5" fill="#1E1B4B">při pohybu:</text>
    <text x="250" y="415" font-size="10.5" fill="#10B981">kroky = kroky + 1</text>
  </g>

  <g>
    <circle cx="112" cy="451" r="10" fill="#0EA5E9"/>
    <line x1="112" y1="462" x2="125" y2="507" stroke="#1E1B4B" stroke-width="2.5" stroke-linecap="round"/>
    <line x1="116" y1="476" x2="88" y2="490" stroke="#1E1B4B" stroke-width="2.5" stroke-linecap="round"/>
    <line x1="117" y1="475" x2="146" y2="465" stroke="#1E1B4B" stroke-width="2.5" stroke-linecap="round"/>
    <line x1="125" y1="507" x2="97" y2="540" stroke="#1E1B4B" stroke-width="2.5" stroke-linecap="round"/>
    <line x1="125" y1="507" x2="159" y2="528" stroke="#1E1B4B" stroke-width="2.5" stroke-linecap="round"/>
  </g>

  <g>
    <rect x="111" y="477" width="42" height="31" rx="5" fill="#EDE9FE" stroke="#7C3AED" stroke-width="2"/>
    <text x="132" y="497" font-size="10" font-weight="700" fill="#7C3AED" text-anchor="middle">128</text>
  </g>

  <g>
    <line x1="181" y1="521" x2="199" y2="521" stroke="#0EA5E9" stroke-width="2.5" stroke-linecap="round"/>
    <line x1="204" y1="539" x2="225" y2="539" stroke="#0EA5E9" stroke-width="2.5" stroke-linecap="round"/>
    <line x1="246" y1="516" x2="266" y2="516" stroke="#0EA5E9" stroke-width="2.5" stroke-linecap="round"/>
  </g>

  <text x="204" y="586" font-size="12" fill="#6B7280" text-anchor="middle">Senzor pohybu a textový kód z ní udělají krokoměr.</text>

  <!-- Panel 4 -->
  <rect x="423" y="353" width="128" height="52" rx="9" fill="#E0F2FE" stroke="#0EA5E9"/>
  <text x="487" y="374" font-size="12.5" fill="#1E1B4B" text-anchor="middle">Pššt.</text>
  <text x="487" y="392" font-size="12.5" fill="#1E1B4B" text-anchor="middle">To je výzkum.</text>

  <rect x="566" y="353" width="194" height="52" rx="9" fill="#D1FAE5" stroke="#10B981"/>
  <text x="663" y="374" font-size="12.5" fill="#1E1B4B" text-anchor="middle">Mini-AI: pravidelná trasa.</text>
  <text x="663" y="392" font-size="12.5" fill="#1E1B4B" text-anchor="middle">Cíl: automat.</text>

  <g>
    <circle cx="494" cy="446" r="10" fill="#0EA5E9"/>
    <line x1="494" y1="457" x2="494" y2="512" stroke="#1E1B4B" stroke-width="2.5" stroke-linecap="round"/>
    <line x1="494" y1="472" x2="469" y2="490" stroke="#1E1B4B" stroke-width="2.5" stroke-linecap="round"/>
    <line x1="494" y1="472" x2="524" y2="484" stroke="#1E1B4B" stroke-width="2.5" stroke-linecap="round"/>
    <line x1="494" y1="512" x2="477" y2="546" stroke="#1E1B4B" stroke-width="2.5" stroke-linecap="round"/>
    <line x1="494" y1="512" x2="515" y2="546" stroke="#1E1B4B" stroke-width="2.5" stroke-linecap="round"/>
  </g>

  <g>
    <rect x="481" y="474" width="38" height="31" rx="5" fill="#EDE9FE" stroke="#7C3AED" stroke-width="2"/>
    <text x="500" y="494" font-size="10" font-weight="700" fill="#10B981" text-anchor="middle">AI</text>
  </g>

  <g>
    <rect x="646" y="425" width="101" height="127" rx="7" fill="#FFFFFF" stroke="#1E1B4B" stroke-width="2"/>
    <rect x="658" y="438" width="77" height="69" rx="4" fill="#E0F2FE" stroke="#0EA5E9"/>
    <rect x="665" y="447" width="18" height="19" rx="3" fill="#FEF3C7" stroke="#D97706"/>
    <rect x="689" y="447" width="18" height="19" rx="3" fill="#D1FAE5" stroke="#10B981"/>
    <rect x="713" y="447" width="15" height="19" rx="3" fill="#FEE2E2" stroke="#EF4444"/>
    <rect x="665" y="475" width="18" height="19" rx="3" fill="#EDE9FE" stroke="#7C3AED"/>
    <rect x="689" y="475" width="18" height="19" rx="3" fill="#FEF3C7" stroke="#D97706"/>
    <circle cx="697" cy="529" r="10" fill="#D1FAE5" stroke="#10B981"/>
    <text x="697" y="533" font-size="10" fill="#10B981" text-anchor="middle">KČ</text>
  </g>

  <text x="596" y="586" font-size="12" fill="#6B7280" text-anchor="middle">Z nasbíraného pohybu si vytrénuješ vlastní mini-AI.</text>

  <text x="400" y="626" font-size="13" fill="#6B7280" text-anchor="middle">Školní micro:bit je ideální začátek: má senzory, simulátor a bloky i text.</text>
</svg>